<svg width="24" height="20" viewBox="0 0 24 20" fill="none" xmlns="http://www.w3.org/2000/svg">
<g id="Union">
<path fill-rule="evenodd" clip-rule="evenodd" d="M13.8223 0H2.57227C1.51758 0 0.697266 0.859375 0.697266 1.875V3.125C0.697266 4.17969 1.51758 5 2.57227 5H13.8223C14.8379 5 15.6973 4.17969 15.6973 3.125V1.875C15.6973 0.859375 14.8379 0 13.8223 0ZM2.57227 1.25H13.8223C14.1348 1.25 14.4473 1.5625 14.4473 1.875V3.125C14.4473 3.47656 14.1348 3.75 13.8223 3.75H2.57227C2.2207 3.75 1.94727 3.47656 1.94727 3.125V1.875C1.94727 1.5625 2.2207 1.25 2.57227 1.25Z" fill="white"/>
<path d="M3.19727 7.5V6.25H1.94727V17.5C1.94727 18.9062 3.04102 20 4.44727 20H11.9473C12.377 20 12.8066 19.8828 13.1582 19.6875C12.8066 19.4141 12.4941 19.1016 12.2207 18.75H4.44727C3.74414 18.75 3.19727 18.2031 3.19727 17.5V16.25H6.32227C6.63477 16.25 6.94727 15.9766 6.94727 15.625C6.94727 15.3125 6.63477 15 6.32227 15H3.19727V12.5H6.32227C6.63477 12.5 6.94727 12.2266 6.94727 11.875C6.94727 11.5625 6.63477 11.25 6.32227 11.25H3.19727V8.75H6.32227C6.63477 8.75 6.94727 8.47656 6.94727 8.125C6.94727 7.8125 6.63477 7.5 6.32227 7.5H3.19727Z" fill="white"/>
<path d="M14.4473 8.28125V6.25H13.1973V9.10156C13.5488 8.78906 13.9785 8.47656 14.4473 8.28125Z" fill="white"/>
<path d="M20.0054 9.77094C20.7555 10.2163 21.384 10.8307 21.8448 11.5589L22.118 10.4065C22.1945 10.084 22.5178 9.88461 22.8402 9.96105C23.1627 10.0375 23.3621 10.3608 23.2857 10.6833L22.7024 13.1435C22.5878 13.6272 22.1027 13.9263 21.6191 13.8116L19.1589 13.2284C18.8364 13.152 18.637 12.8286 18.7134 12.5062C18.7899 12.1837 19.1132 11.9843 19.4357 12.0608L20.8061 12.3856C20.4503 11.7783 19.9447 11.267 19.3328 10.9037C18.5122 10.4164 17.5497 10.2245 16.605 10.3596C15.6603 10.4947 14.7902 10.9489 14.1392 11.6466C13.4881 12.3443 13.0953 13.2437 13.0258 14.1955C12.9563 15.1473 13.2144 16.0942 13.7572 16.8791C14.3 17.664 15.0949 18.2397 16.0099 18.5106C16.925 18.7815 17.9052 18.7314 18.7878 18.3685C19.4662 18.0896 20.0556 17.6388 20.5008 17.0654C20.7239 16.7781 21.1207 16.6577 21.4394 16.833C21.7582 17.0083 21.8776 17.4117 21.6654 17.7072C21.0674 18.5404 20.2454 19.1936 19.2887 19.5869C18.1281 20.0641 16.8392 20.13 15.636 19.7738C14.4327 19.4176 13.3874 18.6606 12.6737 17.6284C11.9599 16.5963 11.6205 15.3511 11.7119 14.0996C11.8033 12.848 12.3199 11.6654 13.176 10.7478C14.0321 9.83034 15.1762 9.23318 16.4185 9.05548C17.6607 8.87779 18.9264 9.13024 20.0054 9.77094Z" fill="white"/>
</g>
</svg>
