<svg width="42" height="42" viewBox="0 0 42 42" fill="none" xmlns="http://www.w3.org/2000/svg">
<g id="noun-medical-prescription-7084346 1">
<path id="Vector" fill-rule="evenodd" clip-rule="evenodd" d="M32.8499 28.0656C34.3888 28.9745 35.342 30.2673 35.342 31.7259L35.3404 34.8775C35.3404 36.336 34.3888 37.6288 32.8482 38.5378C29.7524 40.3671 24.8241 40.3671 21.7294 38.5378C20.1905 37.6272 19.2373 36.3361 19.2373 34.8775V31.7259C19.2373 30.2673 20.1905 28.9729 21.7294 28.0656C24.8253 26.2362 29.7535 26.2362 32.8482 28.0656H32.8499ZM8.00443 35.2745C7.63364 35.2745 7.33341 34.9743 7.33341 34.6018C7.33341 34.231 7.63365 33.9292 8.00443 33.9292H14.6786C15.0494 33.9292 15.3512 34.231 15.3512 34.6018C15.3512 34.9726 15.0494 35.2745 14.6786 35.2745H8.00443ZM24.6567 11.1854C24.8946 10.8999 25.3179 10.8638 25.6017 11.1017C25.8856 11.3396 25.9233 11.7629 25.6854 12.0467L24.117 13.9203L25.4295 15.4904C25.6674 15.7742 25.6296 16.1975 25.3458 16.437C25.062 16.6749 24.6371 16.6372 24.3992 16.3534L23.2409 14.9687L22.0826 16.3534C21.8447 16.6372 21.4198 16.6749 21.1359 16.437C20.8521 16.1975 20.8144 15.7742 21.0523 15.4904L22.3648 13.9203L20.9981 12.2879H19.871V13.9203C19.871 14.2928 19.5691 14.593 19.1984 14.593C18.8276 14.593 18.5257 14.2911 18.5257 13.9203V8.66542C18.5257 8.29298 18.8259 7.99275 19.1967 7.99275H21.3098C22.4894 7.99275 23.4574 8.96071 23.4574 10.1387C23.4574 10.8786 23.0751 11.5545 22.4648 11.9466L23.2409 12.8736L24.6567 11.1854ZM21.3132 9.33807H19.8727V10.9443H21.3132C21.7578 10.9443 22.1171 10.5866 22.1171 10.142C22.1171 9.69738 21.7594 9.33807 21.3132 9.33807ZM4.39345 6.95915H6.97088V4.38172L4.39345 6.95915ZM7.13328 2.32445C7.25633 2.18172 7.44008 2.08984 7.64187 2.08984L30.3331 2.09477C30.7022 2.09477 31.0024 2.395 31.0024 2.7625L31.0057 11.251C31.0057 11.6218 30.7039 11.9237 30.3331 11.9237C29.9623 11.9237 29.662 11.6218 29.662 11.251V3.43205H8.31414V7.61385C8.31414 7.99447 8.02703 8.30293 7.64148 8.30293H3.44462V38.5496H19.2849C19.6557 38.5496 19.9576 38.8498 19.9576 39.2206C19.9576 39.5914 19.6557 39.8933 19.2849 39.8933L2.77227 39.8916C2.40148 39.8916 2.09961 39.5914 2.09961 39.219V7.63215C2.09961 7.432 2.18656 7.24989 2.33586 7.11864L7.13328 2.32445ZM8.00282 13.7282C7.63203 13.7282 7.3318 13.4279 7.3318 13.0571C7.3318 12.6863 7.63204 12.3845 8.00282 12.3845H14.0354C14.4062 12.3845 14.7064 12.6863 14.7064 13.0571C14.7064 13.4279 14.4062 13.7298 14.0338 13.7298L8.00282 13.7282ZM8.00282 18.0381C7.63203 18.0381 7.3318 17.7378 7.3318 17.3654C7.3318 16.9946 7.63204 16.6927 8.00282 16.6927L14.0354 16.6944C14.4062 16.6944 14.7064 16.9962 14.7064 17.367C14.7064 17.7378 14.4062 18.0397 14.0338 18.0397L8.00282 18.0381ZM8.00282 22.3466C7.63203 22.3466 7.3318 22.0463 7.3318 21.6755C7.3318 21.3047 7.63204 21.0029 8.00282 21.0029H25.3719C25.7427 21.0029 26.0446 21.3047 26.0446 21.6755C26.0446 22.0463 25.7427 22.3482 25.3719 22.3482L8.00282 22.3466ZM8.00282 26.6565C7.63203 26.6565 7.3318 26.3562 7.3318 25.9838C7.3318 25.613 7.63204 25.3111 8.00282 25.3111H17.7937C18.1645 25.3111 18.4647 25.613 18.4647 25.9838C18.4647 26.3546 18.1645 26.6565 17.7937 26.6565H8.00282ZM8.00282 30.965C7.63203 30.965 7.3318 30.6647 7.3318 30.2939C7.3318 29.9215 7.63204 29.6213 8.00282 29.6213H14.677C15.0478 29.6213 15.3496 29.9231 15.3496 30.2939C15.3496 30.6647 15.0478 30.965 14.677 30.965H8.00282ZM31.0076 22.3501H38.5547V17.6121C38.5547 15.5384 36.855 13.8388 34.7813 13.8388C32.7059 13.8388 31.008 15.5368 31.008 17.6121L31.0076 22.3501ZM38.5547 23.6937H31.0076V25.3311C31.0076 25.7019 30.7058 26.0037 30.335 26.0037C29.9642 26.0037 29.6639 25.7035 29.6639 25.3311V17.6118C29.6639 14.7965 31.969 12.4945 34.7813 12.4945C37.5966 12.4945 39.9004 14.7963 39.9004 17.6118V28.4317C39.9004 30.2282 38.9439 31.8934 37.4066 32.8186C37.0884 33.0089 36.6766 32.9056 36.4879 32.5889C36.2992 32.2707 36.4009 31.8589 36.7192 31.6702C37.8578 30.986 38.5584 29.7621 38.5584 28.4316L38.5547 23.6937ZM25.9743 28.1104L30.0052 35.0929C31.5556 34.7041 33.997 33.5835 33.997 31.7263C33.997 30.7764 33.2964 29.8872 32.1677 29.2194C30.3991 28.1744 28.0086 27.8823 25.9762 28.1104L25.9743 28.1104ZM28.6059 35.3424L24.5749 28.3617C23.7579 28.5668 23.0245 28.8588 22.4126 29.2214C21.2822 29.8891 20.5817 30.7783 20.5817 31.7282C20.5817 32.6782 21.2822 33.5657 22.4126 34.2335C24.1812 35.2785 26.5765 35.5739 28.6058 35.3442L28.6059 35.3424ZM27.2901 36.7599C25.1146 36.7599 22.3274 36.1726 20.5995 34.5516L20.5831 34.5369V34.8765C20.5831 35.8248 21.2836 36.714 22.414 37.3817C25.0833 38.9584 29.498 38.9584 32.1678 37.3817C33.2982 36.714 33.9971 35.8264 33.9971 34.8765V34.5369C32.2465 36.1594 29.543 36.7599 27.2901 36.7599Z" fill="#5C0B8A"/>
</g>
</svg>
